Coordinates
version=1
nRows=19
nColumns=24
inDegrees=yes

Units are S.I. units (second, meters, Newtons, ...)
Angles are in degrees.

endheader
time	pelvis_tilt	pelvis_list	pelvis_rotation	pelvis_tx	pelvis_ty	pelvis_tz	hip_flexion_r	hip_adduction_r	hip_rotation_r	knee_angle_r	ankle_angle_r	subtalar_angle_r	mtp_angle_r	hip_flexion_l	hip_adduction_l	hip_rotation_l	knee_angle_l	ankle_angle_l	subtalar_angle_l	mtp_angle_l	lumbar_extension	lumbar_bending	lumbar_rotation
      7.74000000	      5.11251030	     -2.24007548	     -0.15487562	      0.04852395	      0.94488422	      0.22737659	     -2.66170098	      8.18262277	     -0.11284514	     -7.55234997	     12.71029050	     -0.78194365	      0.00000000	     12.66016622	     -2.28081804	     -3.70043179	    -48.90807509	      4.63302721	    -12.09245115	      0.00000000	    -23.27587359	      3.60758077	     -0.89372316
      7.75000000	      4.96284876	     -2.16701261	     -0.25643336	      0.05658633	      0.94471715	      0.22700665	     -3.09579624	      8.09495648	      0.16801192	     -7.48731779	     13.06374930	     -0.85948732	      0.00000000	     13.31272101	     -2.13431218	     -3.65110541	    -46.93069270	      5.27525605	    -11.82899403	      0.00000000	    -23.23608830	      3.51130615	     -0.72126760
      7.76000000	      4.80368803	     -2.12323844	     -0.33775828	      0.06470687	      0.94441253	      0.22656956	     -3.53358927	      8.03348595	      0.38435932	     -7.39440709	     13.43736678	     -0.94960950	      0.00000000	     13.89760874	     -2.01088247	     -3.60950513	    -44.75171785	      5.79819785	    -11.65267055	      0.00000000	    -23.16538368	      3.45847898	     -0.61024726
      7.77000000	      4.65932084	     -2.11485241	     -0.41904862	      0.07284671	      0.94401079	      0.22606102	     -3.99997623	      8.00324479	      0.63743292	     -7.28240234	     13.80205124	     -1.04796462	      0.00000000	     14.39131204	     -1.91505228	     -3.57328572	    -42.39440866	      6.27055734	    -11.34867305	      0.00000000	    -23.11618523	      3.46586532	     -0.47412623
      7.78000000	      4.51786669	     -2.14907166	     -0.49577639	      0.08103286	      0.94349632	      0.22552501	     -4.48512722	      8.01476547	      0.88232920	     -7.14437642	     14.15583283	     -1.15630916	      0.00000000	     14.80718103	     -1.85871632	     -3.53175226	    -39.87289286	      6.66849635	    -10.90437873	      0.00000000	    -23.05646922	      3.51992163	     -0.33930259
      7.79000000	      4.39523907	     -2.22999025	     -0.57607556	      0.08923799	      0.94290251	      0.22495408	     -4.99569086	      8.07106592	      1.16470658	     -7.00424469	     14.45789160	     -1.28292269	      0.00000000	     15.13237140	     -1.84418467	     -3.47361634	    -37.21158524	      7.03569171	    -10.17831631	      0.00000000	    -23.02460409	      3.63584804	     -0.17107949
      7.80000000	      4.25602816	     -2.33235478	     -0.66211411	      0.09749587	      0.94219076	      0.22436457	     -5.49254832	      8.14254992	      1.41666848	     -6.86055964	     14.79436565	     -1.38972781	      0.00000000	     15.40309726	     -1.84952077	     -3.41778187	    -34.41559009	      7.30503244	     -9.26669698	      0.00000000	    -22.95646632	      3.77478216	     -0.00987339
      7.81000000	      4.12416095	     -2.46314013	     -0.76089819	      0.10579455	      0.94140819	      0.22376626	     -5.99712338	      8.23592429	      1.65650848	     -6.72534449	     15.13189627	     -1.46134718	      0.00000000	     15.59501765	     -1.88091923	     -3.34565556	    -31.50507796	      7.49603209	     -8.11730917	      0.00000000	    -22.89153990	      3.94550212	      0.17619795
      7.82000000	      4.00198755	     -2.61727237	     -0.87465220	      0.11414570	      0.94056329	      0.22318560	     -6.51301270	      8.34726727	      1.88979619	     -6.59825155	     15.46957709	     -1.50231780	      0.00000000	     15.70912953	     -1.93704219	     -3.25710878	    -28.50690815	      7.60442886	     -6.77563756	      0.00000000	    -22.82714694	      4.12729239	      0.39367219
      7.83000000	      3.88871164	     -2.80074528	     -1.00894848	      0.12251948	      0.93966450	      0.22261593	     -7.02227742	      8.48125317	      2.12072059	     -6.51233393	     15.78250556	     -1.51259746	      0.00000000	     15.75208529	     -2.02176587	     -3.12601733	    -25.44730081	      7.62041665	     -5.34716617	      0.00000000	    -22.77990617	      4.33652970	      0.63979566
      7.84000000	      3.78466177	     -3.00867653	     -1.16299947	      0.13093565	      0.93871532	      0.22206521	     -7.53292235	      8.63285858	      2.34480946	     -6.45315100	     16.07990888	     -1.49711931	      0.00000000	     15.72818509	     -2.13520388	     -2.95537046	    -22.35610864	      7.54298748	     -3.96616870	      0.00000000	    -22.73877312	      4.56126516	      0.91744463
      7.85000000	      3.69066832	     -3.25032469	     -1.32278073	      0.13941403	      0.93771999	      0.22152416	     -8.06162926	      8.81358157	      2.54814972	     -6.38866391	     16.35556565	     -1.46419686	      0.00000000	     15.65062887	     -2.29352545	     -2.75624986	    -19.28146090	      7.41516182	     -2.70354999	      0.00000000	    -22.69540380	      4.81647891	      1.24460442
      7.86000000	      3.59989221	     -3.51415377	     -1.50879712	      0.14789534	      0.93668833	      0.22099728	     -8.56081476	      9.00879877	      2.75653675	     -6.39729834	     16.62135116	     -1.40410727	      0.00000000	     15.52228776	     -2.48191233	     -2.48894266	    -16.23272623	      7.19054156	     -1.75830417	      0.00000000	    -22.66933030	      5.08497641	      1.58139011
      7.87000000	      3.53664971	     -3.81542424	     -1.69942134	      0.15643060	      0.93566047	      0.22048777	     -9.09420619	      9.23759849	      2.95455886	     -6.40750072	     16.86793652	     -1.32501955	      0.00000000	     15.33903778	     -2.73437027	     -2.26263194	    -13.27903303	      6.96149165	     -1.03308594	      0.00000000	    -22.66978430	      5.38618796	      1.96495869
      7.88000000	      3.50984018	     -4.11988770	     -1.89602723	      0.16499785	      0.93467156	      0.21995502	     -9.64534234	      9.45944866	      3.13396777	     -6.46846191	     17.05323154	     -1.22777599	      0.00000000	     15.09806973	     -3.00907843	     -2.12743874	    -10.45460590	      6.75502377	     -0.51073835	      0.00000000	    -22.72387358	      5.69233342	      2.35163097
      7.89000000	      3.49267213	     -4.43473664	     -2.08049140	      0.17361043	      0.93369259	      0.21940644	    -10.19530686	      9.68822744	      3.28831234	     -6.55876704	     17.20932807	     -1.13476827	      0.00000000	     14.85166019	     -3.30885661	     -2.14271237	     -7.81503103	      6.55491346	     -0.14765042	      0.00000000	    -22.78123581	      5.99844524	      2.72321320
      7.90000000	      3.49553833	     -4.74279363	     -2.25678657	      0.18226520	      0.93276953	      0.21881485	    -10.75230088	      9.90241699	      3.43025395	     -6.68134483	     17.33169397	     -1.03986088	      0.00000000	     14.60554438	     -3.60411625	     -2.38646620	     -5.41129409	      6.36442234	      0.13607311	      0.00000000	    -22.86803810	      6.29827376	      3.08244032
      7.91000000	      3.54167945	     -5.02750816	     -2.39766566	      0.19100659	      0.93194019	      0.21813582	    -11.35410879	     10.08651510	      3.54741976	     -6.81146264	     17.42940221	     -0.95380343	      0.00000000	     14.35584903	     -3.85682686	     -2.93383139	     -3.29362619	      6.23076983	      0.53159451	      0.00000000	    -22.98907114	      6.58114895	      3.40489506
      7.92000000	      3.57110959	     -5.28431132	     -2.54872349	      0.19979134	      0.93116292	      0.21742139	    -11.89777190	     10.23177757	      3.66180805	     -7.02278629	     17.42962057	     -0.86560411	      0.00000000	     14.19492053	     -4.06392549	     -3.95620281	     -1.53704550	      6.23734642	      1.29518121	      0.00000000	    -23.08927481	      6.83144013	      3.71545864
